#!OML:ASF E:/inclinewalkrobotboard/Project1/Captureday1/Session1/subject1.ASF
:FULLY-SPECIFIED
:DEGREES
63
root 0 0 0 -1.4146836779297551 21.433368286859388 8.589582111669893
lowerback -4.022946844784665 -6.062225269662845 -6.36008108726164
upperback -8.38972695441795 -7.507266185736741 6.980735776351754
thorax -6.090034350407094 -2.6188325607553447 10.967807888844142
lowerneck -5.599125299477937 -8.874081823006698 -7.669452723738067
upperneck 32.2151276669946 -11.458649658859306 1.8780310128172792
head 12.134648451724914 -5.833311392877066 0.3690789118096387
rclavicle -3.747374647812049E-15 -2.4372404235528556E-15
rhumerus -18.959346299419884 -26.93929987179259 -16.66748936204948
rradius 62.39734768851011
rwrist -12.250977931226018
rhand -26.61945628195104 32.38524755232771
rfingers 7.1250199999999655
rthumb -0.03512619219367252 1.6118387749860226
lclavicle 1.8055041860141412E-16 -3.889215725802181E-15
lhumerus 22.083625284378932 3.2920553178314718 42.741473135822076
lradius 63.850300832136156
lwrist -6.797600518794475
lhand -14.242279224379246 7.468488670529972
lfingers 7.125019999999965
lthumb 11.735233184245311 35.63142059731655
rfemur 138.9990289253605 -154.86229909075692 -120.31681904761373
rtibia 28.427387006193396
rfoot -13.937271377370951 -49.63963444734705
rtoes 4.5306464404596625
lfemur -82.10292558724383 24.015055364855172 -57.07770761908289
ltibia 68.20557552356956
lfoot 12.556182200069419 32.00337982261655
ltoes 0.12349571036110163
64
root 0 0 0 -1.4101204288891864 21.44092830175575 8.587101195388984
lowerback -4.027252163838768 -6.062506561590382 -6.359516429962115
upperback -8.391257845539345 -7.507545049251533 6.981568120932236
thorax -6.088914033946622 -2.61915588902263 10.96837612693529
lowerneck -5.598556163261386 -8.875646241599718 -7.67066297608896
upperneck 32.21900353329222 -11.460826683026774 1.8772862728513684
head 12.136150066523836 -5.8343716797379885 0.36884345659765394
rclavicle -3.730832522338958E-15 -2.4274791942360027E-15
rhumerus -18.93830984263834 -26.939647982389307 -16.67476975315745
rradius 62.4003468009374
rwrist -12.260215180230283
rhand -26.617682852549965 32.382318600248595
rfingers 7.1250199999999655
rthumb -0.0334519617891722 1.6091616252463439
lclavicle 2.4576981384848813E-16 -3.8672262034631225E-15
lhumerus 22.05057653847911 3.272669168994619 42.74102231772376
lradius 63.860340413993605
lwrist -6.7926714734846545
lhand -14.240324040465348 7.467306161457543
lfingers 7.125019999999965
lthumb 11.73689201164448 35.628880564021436
rfemur 139.0841337699154 -154.9595087918233 -120.41103584891084
rtibia 28.45501188772129
rfoot -13.948151464401104 -49.66505085678155
rtoes 4.557043036938229
lfemur -82.08714432636127 24.019137816149474 -57.074571102122064
ltibia 68.246736275985
lfoot 12.520538557921409 31.990682453253346
ltoes 0.10160889313716126
65
root 0 0 0 -1.408861866183873 21.442486758626583 8.585887567599498
lowerback -4.028210371961578 -6.062561189397444 -6.3588311631983245
upperback -8.391657838316474 -7.507588654555162 6.981848556552817
thorax -6.088693493478393 -2.619274549693915 10.968277425397948
lowerneck -5.598499539277989 -8.875948379872952 -7.670950643166128
upperneck 32.21985735542479 -11.461257274392832 1.8771724903662304
head 12.136509726081435 -5.834583394763041 0.3688157807121286
rclavicle -3.724887605811168E-15 -2.4264345025987092E-15
rhumerus -18.9337296857842 -26.93947957304529 -16.677386400584396
rradius 62.40087797485609
rwrist -12.262474918535155
rhand -26.617657777207658 32.381851130366805
rfingers 7.1250199999999655
rthumb -0.03342613915847181 1.6086881077664223
lclavicle 2.599427556470519E-16 -3.862831095834743E-15
lhumerus 22.0532175248217 3.2650057639796453 42.71617310068633
lradius 63.86494034686148
lwrist -6.797805563148689
lhand -14.222413331394609 7.469439101810835
lfingers 7.125019999999965
lthumb 11.753939189303889 35.62801786730243
rfemur 139.12234846053502 -154.9972944571286 -120.45119612838755
rtibia 28.46859626393419
rfoot -13.939270807290514 -49.68819558426007
rtoes 4.571121151594401
lfemur -82.08683022461646 24.02345920942585 -57.060549356007925
ltibia 68.26841336462653
lfoot 12.511799321455559 31.9782480004412
ltoes 0.10626106958134862
66
root 0 0 0 -1.40594300236571 21.439682080618166 8.583883455059832
lowerback -4.02989183889627 -6.062498625470836 -6.358026008226577
upperback -8.39232653463513 -7.507515855616367 6.981987705274756
thorax -6.088354642195295 -2.61937360905495 10.967985700170356
lowerneck -5.598512516055435 -8.87597610729545 -7.6710247952521895
upperneck 32.22106490793153 -11.461553845441198 1.87765819078448
head 12.137036615035521 -5.834649213831854 0.36898419590788323
rclavicle -3.726943182078806E-15 -2.429909347104259E-15
rhumerus -18.926339264272855 -26.938441818604158 -16.677615163790477
rradius 62.40241404941481
rwrist -12.264294930220053
rhand -26.61813667893133 32.381292984609765
rfingers 7.1250199999999655
rthumb -0.03387078541956967 1.6080095485361063
lclavicle 2.477568923421514E-16 -3.8667437482021705E-15
lhumerus 22.101511338584558 3.2697989977489716 42.65453350253139
lradius 63.86349334097439
lwrist -6.820953982218729
lhand -14.191373918233523 7.47147940466898
lfingers 7.125019999999965
lthumb 11.783610120912414 35.62582331290952
rfemur 139.18644355044756 -155.05681166070318 -120.51267998103779
rtibia 28.472962364903022
rfoot -13.923641502175272 -49.71806738894201
rtoes 4.58525235329169
lfemur -82.08608860451332 24.02620170550457 -57.044975116799755
ltibia 68.2837598186783
lfoot 12.492860551266904 31.968683791047845
ltoes 0.1087323645994509
67
root 0 0 0 -1.4163536987414602 21.436086336808206 8.589402355891506
lowerback -4.0217454718634045 -6.062199646729589 -6.359643940787452
upperback -8.38907356881682 -7.507212895946264 6.980823558400827
thorax -6.089985966986174 -2.618846462314764 10.967647406261792
lowerneck -5.599386753899915 -8.874243266369323 -7.669588139450252
upperneck 32.2146933869479 -11.458713134194891 1.8776779551812446
head 12.134528923728919 -5.833393765792257 0.3689624821754116
rclavicle -3.7445111582069684E-15 -2.4356471863749157E-15
rhumerus -18.959858443174568 -26.93889839474948 -16.670654955222858
rradius 62.3975445477139
rwrist -12.252560949403417
rhand -26.619191549889027 32.38549108038034
rfingers 7.1250199999999655
rthumb -0.034879311714341554 1.6121933544559859
lclavicle 1.9574004637265164E-16 -3.888322764577621E-15
lhumerus 22.026370547744833 3.2640205578396695 42.807378919460135
lradius 63.85955252355846
lwrist -6.7583406971028746
lhand -14.253561139724313 7.470629209579201
lfingers 7.125019999999965
lthumb 11.724298002012345 35.63337805272967
rfemur 138.9316746821168 -154.79765973088647 -120.25278598487759
rtibia 28.423909236457582
rfoot -13.949751230281649 -49.61263868102647
rtoes 4.523404563104609
lfemur -82.09945869736927 24.0137387988323 -57.07730661244804
ltibia 68.2039408558526
lfoot 12.564858552687415 32.00079352147037
ltoes 0.12091822690141107
